<svg viewBox="0 0 32 32" width="32" height="32" fill="none" xmlns="http://www.w3.org/2000/svg">
  <rect width="32" height="32" rx="10" fill="#F97316" />
  <path d="M12 10C12 8.89543 12.8954 8 14 8H18C19.1046 8 20 8.89543 20 10V14C20 15.1046 19.1046 16 18 16H14C12.8954 16 12 15.1046 12 14V10Z" fill="white" />
  <path opacity="0.5" d="M12 18C12 16.8954 12.8954 16 14 16H18C19.1046 16 20 16.8954 20 18V22C20 23.1046 19.1046 24 18 24H14C12.8954 24 12 23.1046 12 22V18Z" fill="white" />
  <rect opacity="0.3" x="22" y="8" width="2" height="16" rx="1" fill="white" />
  <rect opacity="0.3" x="8" y="8" width="2" height="16" rx="1" fill="white" />
</svg>
